<?xml version="1.0" encoding="utf-8"?>
<!-- Generator: Adobe Illustrator 24.0.1, SVG Export Plug-In . SVG Version: 6.00 Build 0)  -->
<svg version="1.1" id="Layer_1" xmlns="http://www.w3.org/2000/svg" xmlns:xlink="http://www.w3.org/1999/xlink" x="0px" y="0px"
	 viewBox="0 0 2499.7 478.3" style="enable-background:new 0 0 2499.7 478.3;" xml:space="preserve">
<style type="text/css">
	.st0{fill:#03363D;}
</style>
<title>golion-z-sourcefile-algae</title>
<g>
	<polygon class="st0" points="284.9,212.7 284.9,149.4 4.8,149.4 4.8,211.3 194.8,211.3 0,409.5 0,472.8 287.7,472.8 287.7,410.9 
		90.2,410.9 	"/>
	<path class="st0" d="M496.2,141.1h-5.5c-90.8,2.1-163.8,77.1-161.7,168.6c0,97,69.5,168.6,177.6,168.6c63.3,0,103.9-22,132.8-52.3
		l-44.1-47.5c-23.4,22.7-55.8,35.1-88.8,34.4c-57.8,0.7-90.8-29.6-99.8-77.1h251.9C664.2,222.3,603.6,141.1,496.2,141.1z
		 M406.8,282.9c8.9-48.9,42.7-76.4,91.5-76.4c52.3,0,78.5,32.3,85.4,76.4H406.8z"/>
	<path class="st0" d="M872.7,141.8c-81.9,0-150.7,53-150.7,141.1v189.3h70.2V291.8c0-53,30.3-84.7,82.6-84.7
		c52.3,0,77.8,31.7,77.8,84.7v180.3h69.5V282.9C1022.7,194.8,953.9,141.8,872.7,141.8z"/>
	<path class="st0" d="M1351,190.6c-27.5-31-66.8-48.9-108-48.2c-85.3,0-162.4,64.7-162.4,167.9c0,102.5,79.2,167.9,161.7,167.9
		c42,0.7,81.9-18.6,108.7-50.9v44.7h68.8V0H1351V190.6z M1251.9,415c-55.7,0-101.2-44-102.5-99.8c-1.4-56.4,43.4-103.9,99.8-105.3
		c56.4-1.4,103.9,43.4,105.3,99.8C1354.5,368.2,1311.1,415,1251.9,415z"/>
	<path class="st0" d="M2020.7,277.4c-46.8-10.3-76.4-16.5-76.4-39.9c0-20.6,18.6-38.5,55.8-38.5c28.9-0.7,56.4,13.1,73,37.2
		l57.8-31.7c-25.5-38.5-70.2-62.6-130.8-62.6c-76.4-0.7-125.3,46.8-125.3,97.7c0,66.8,57.1,84.7,112.2,96.4
		c40.6,8.3,78.5,13.8,78.5,39.9c0,22.7-20,42.7-59.2,42.7c-34.4,0.7-66.8-17.2-83.3-47.5l-62.6,32.3c27.5,48.2,75,75,142.5,74.3
		c92.2,0.7,131.5-59.2,131.5-103.9C2134.3,306.3,2073.7,289.1,2020.7,277.4z"/>
	<polygon class="st0" points="2369.6,287 2496.3,148.7 2412.3,148.7 2266.4,309 2266.4,0 2197.6,0 2197.6,472.1 2266.4,472.1 
		2266.4,388.2 2320.8,328.3 2421.9,472.1 2499.7,472.1 	"/>
	<path class="st0" d="M1652.5,141.1h-5.5c-90.8,2.1-163.8,77.1-161.7,168.6c0,97,69.5,168.6,177.6,168.6c63.3,0,103.9-22,132.8-52.3
		l-44.1-47.5c-24.1,22.7-56.4,35.1-89.5,34.4c-57.8,0.7-90.9-29.6-99.8-77.1h252.6C1820.4,222.3,1759.8,141.1,1652.5,141.1z
		 M1562.3,282.9c8.9-48.9,42.7-76.4,91.5-76.4c52.3,0,78.5,32.3,85.3,76.4H1562.3z"/>
</g>
</svg>
